<?xml version="1.0" standalone="no"?>
<!DOCTYPE svg PUBLIC "-//W3C//DTD SVG 20010904//EN"
 "http://www.w3.org/TR/2001/REC-SVG-20010904/DTD/svg10.dtd">
<svg version="1.0" xmlns="http://www.w3.org/2000/svg"
 width="1200.000000pt" height="1200.000000pt" viewBox="0 0 1200.000000 1200.000000"
 preserveAspectRatio="xMidYMid meet">
<metadata>
Created by potrace 1.16, written by Peter Selinger 2001-2019
</metadata>
<g transform="translate(0.000000,1200.000000) scale(0.100000,-0.100000)"
fill="#000000" stroke="none">
<path d="M4915 10623 c-604 -54 -1162 -306 -1521 -685 -470 -496 -638 -1176
-439 -1775 115 -346 354 -628 671 -791 125 -64 184 -87 298 -116 325 -85 679
-34 901 129 l50 37 -40 -6 c-107 -15 -217 -18 -298 -7 -442 59 -831 371 -966
777 -133 398 -35 926 247 1324 84 119 296 333 425 429 188 140 462 291 702
386 97 38 81 39 -75 3 -310 -70 -604 -194 -846 -357 -283 -190 -481 -413 -619
-696 -77 -159 -119 -283 -155 -463 -32 -155 -40 -124 -16 59 100 744 668 1318
1528 1544 822 215 1692 53 2348 -438 141 -105 420 -385 420 -420 0 -4 -779 -7
-1731 -7 l-1730 0 3 -52 3 -53 120 -12 c262 -28 444 -98 579 -224 131 -122
204 -243 245 -405 52 -206 61 -413 61 -1403 l0 -844 -42 7 c-337 55 -616 57
-926 5 -408 -68 -812 -243 -1146 -497 -121 -92 -325 -294 -418 -413 -381 -490
-576 -1089 -555 -1704 13 -370 86 -663 252 -1000 194 -394 504 -749 875 -1000
47 -32 110 -77 140 -100 323 -248 738 -412 1180 -467 134 -17 511 -16 655 0
526 62 1035 247 1475 536 393 259 697 589 890 966 l59 117 258 7 c699 19 1034
74 1347 220 370 173 654 499 791 909 128 381 127 825 -2 1216 -93 284 -279
572 -486 752 -264 230 -544 348 -1064 445 -84 16 -153 31 -153 34 0 3 58 27
129 53 165 62 368 161 467 228 171 115 340 308 439 501 112 217 157 417 158
698 1 251 -36 435 -129 639 -86 188 -274 411 -446 529 -266 182 -640 291
-1058 309 l-156 6 -34 46 c-61 80 -261 281 -361 361 -307 246 -703 432 -1099
515 -69 14 -183 41 -255 60 -151 40 -316 70 -464 85 -96 9 -394 11 -486 3z
m2112 -1233 c315 -26 488 -77 671 -196 77 -50 86 -60 112 -117 42 -94 96 -270
127 -414 26 -121 28 -142 28 -383 -1 -228 -3 -266 -23 -359 -53 -240 -143
-452 -270 -631 -86 -122 -290 -327 -412 -412 -193 -137 -424 -237 -643 -279
-116 -23 -369 -32 -449 -16 l-38 8 0 1404 0 1405 384 0 c212 0 443 -5 513 -10z
m1033 -40 c31 -31 30 -85 -2 -112 -47 -41 -118 -8 -118 54 0 66 76 102 120 58z
m363 -211 c47 -36 55 -128 16 -175 -21 -25 -84 -36 -122 -21 -40 17 -79 94
-70 140 13 68 119 102 176 56z m-360 -343 c97 -170 170 -386 201 -599 20 -134
21 -402 1 -522 -74 -460 -343 -820 -720 -966 -104 -40 -229 -72 -385 -97 -236
-38 -231 -40 -95 31 208 108 321 191 480 352 280 283 442 616 495 1018 13 101
13 369 -1 477 -15 126 -46 269 -85 388 -18 59 -34 111 -34 116 0 18 95 -114
143 -198z m603 49 c49 -50 104 -160 130 -255 26 -99 22 -260 -9 -382 -25 -95
-88 -244 -121 -283 -10 -12 -8 -1 7 30 104 214 95 503 -23 782 -69 161 -64
192 16 108z m-3012 -1246 c71 -83 -7 -203 -109 -169 -66 22 -87 113 -39 169
22 27 32 31 74 31 42 0 52 -4 74 -31z m-40 -381 c25 -41 58 -577 71 -1163 5
-246 4 -273 -12 -305 -37 -73 -150 -73 -186 1 -16 34 -17 62 -7 440 5 222 14
474 20 559 28 449 35 490 80 490 11 0 26 -10 34 -22z m-737 -742 c51 -8 117
-20 147 -26 l56 -11 0 -201 0 -200 -23 5 c-181 46 -527 57 -722 24 -300 -52
-590 -170 -825 -335 -111 -78 -342 -303 -422 -412 -292 -397 -432 -780 -445
-1221 -7 -236 12 -395 73 -607 185 -641 718 -1170 1362 -1351 191 -54 277 -66
497 -66 166 0 219 4 310 23 212 42 415 125 573 235 78 54 232 192 232 208 0
17 -64 -23 -122 -77 -128 -117 -303 -214 -475 -261 -136 -37 -322 -39 -433 -5
-284 89 -430 306 -345 514 14 34 -26 40 -163 27 -150 -15 -271 -3 -392 37
-273 91 -453 312 -438 538 8 115 72 214 164 252 30 13 32 16 23 41 -7 21 -29
38 -83 66 -95 49 -195 133 -263 222 -64 83 -144 239 -172 333 -107 360 -44
768 168 1087 71 106 250 278 370 355 56 36 123 80 149 97 131 90 368 183 589
230 121 26 141 28 378 27 205 -1 266 -5 340 -20 l90 -19 0 -930 c0 -828 -2
-946 -18 -1072 -23 -188 -47 -278 -103 -393 -40 -81 -61 -109 -143 -191 -100
-100 -170 -147 -286 -194 -80 -31 -215 -61 -319 -70 -144 -12 -137 -9 -134
-68 l3 -52 1353 -5 1352 -5 -66 -85 c-84 -108 -300 -321 -427 -424 -524 -420
-1189 -708 -1806 -781 -232 -28 -214 -34 84 -31 313 4 425 17 685 82 695 172
1309 539 1714 1024 91 109 113 133 101 110 -5 -8 -26 -42 -48 -75 -345 -521
-996 -958 -1717 -1155 -425 -116 -914 -134 -1310 -49 -577 125 -1084 455
-1448 943 -253 338 -406 707 -469 1129 -23 153 -22 500 1 652 85 556 301 1014
662 1404 165 179 425 368 679 491 282 138 559 217 875 250 118 12 476 4 587
-14z m2559 -89 c725 -96 1097 -367 1297 -942 73 -212 105 -388 114 -636 18
-500 -117 -891 -408 -1186 -191 -193 -417 -321 -697 -394 -134 -34 -157 -36
-147 -11 3 9 17 62 31 117 116 478 64 965 -151 1412 -132 275 -313 506 -535
683 -82 65 -219 155 -226 148 -1 -2 14 -26 35 -53 58 -77 134 -202 190 -314
305 -607 320 -1306 42 -1875 -83 -170 -68 -159 -177 -131 -390 100 -575 327
-651 795 -15 93 -17 235 -20 1258 l-4 1154 593 -5 c464 -4 619 -8 714 -20z
m-1744 -878 c32 -17 52 -75 37 -111 -12 -30 -54 -58 -88 -58 -33 0 -91 58 -91
90 0 19 11 37 35 59 37 32 72 39 107 20z"/>
</g>
</svg>
