<?xml version="1.0" standalone="no"?>
<!DOCTYPE svg PUBLIC "-//W3C//DTD SVG 20010904//EN"
 "http://www.w3.org/TR/2001/REC-SVG-20010904/DTD/svg10.dtd">
<svg version="1.0" xmlns="http://www.w3.org/2000/svg"
 width="860.000000pt" height="1060.000000pt" viewBox="0 0 860.000000 1060.000000"
 preserveAspectRatio="xMidYMid meet">
<metadata>
Created by potrace 1.16, written by Peter Selinger 2001-2019
</metadata>
<g transform="translate(0.000000,1060.000000) scale(0.100000,-0.100000)"
fill="#000000" stroke="none">
<path d="M310 10097 c0 -108 91 -1561 205 -3262 36 -533 97 -1442 135 -2020
39 -577 88 -1306 110 -1620 22 -313 51 -734 65 -935 14 -201 30 -374 34 -385
7 -16 72 -40 307 -117 577 -186 2318 -728 2871 -893 l223 -66 217 61 c460 130
2408 706 2933 867 135 41 258 82 273 90 56 28 47 -58 137 1238 51 738 95 1382
155 2300 20 297 69 1028 110 1625 41 597 95 1400 120 1785 25 385 54 835 65
1000 11 165 20 321 20 346 l0 46 -687 7 c-379 4 -1592 11 -2698 16 -1105 5
-2592 12 -3302 16 l-1293 6 0 -105z m4205 -1723 c1287 -9 2342 -18 2344 -20
14 -12 -498 -5114 -513 -5114 -1 0 -83 -27 -181 -61 -249 -83 -951 -303 -1425
-445 -350 -105 -403 -119 -465 -118 -74 1 -281 58 -1070 294 -181 54 -485 144
-675 201 -190 56 -348 105 -351 108 -12 11 -97 1147 -106 1414 l-6 187 510 0
511 0 4 -381 3 -381 23 -18 c27 -22 508 -182 900 -300 l274 -82 216 57 c396
104 907 246 916 256 6 5 20 93 33 196 31 253 121 1066 125 1128 l3 50 -55 8
c-30 4 -580 10 -1222 13 l-1168 6 0 518 0 517 423 6 c232 4 789 12 1237 18
448 5 820 12 826 14 6 2 15 30 19 62 3 32 35 260 70 508 35 247 63 450 62 452
-2 1 -763 -2 -1692 -7 -930 -5 -1825 -10 -1991 -10 l-301 0 -12 198 c-7 108
-21 318 -31 467 -10 148 -17 272 -15 275 2 3 101 4 222 3 120 -2 1271 -10
2558 -19z"/>
</g>
</svg>
