<?xml version="1.0" encoding="iso-8859-1"?>
<!-- Generator: Adobe Illustrator 18.1.1, SVG Export Plug-In . SVG Version: 6.00 Build 0)  -->
<svg version="1.1" id="Capa_1" xmlns="http://www.w3.org/2000/svg" xmlns:xlink="http://www.w3.org/1999/xlink" x="0px" y="0px"
	 viewBox="0 0 13.877 13.877" style="enable-background:new 0 0 13.877 13.877;" xml:space="preserve">
<g>
	<g>
		<path style="fill:#030104;" d="M12.637,12.855V0.465C12.637,0.094,12.172,0,12.172,0H2.633C1.239,0,1.239,1.487,1.239,1.487
			v11.895c0,0.271,0.221,0.494,0.496,0.494h0.48v-1.927H1.624v-0.826h0.591V8.872H1.72V8.044h0.495V6.293H1.72V5.466h0.495v-2.06
			H1.836V2.58h0.379V1.504c0-0.341,0.511-0.513,0.511-0.513h8.425c0.526,0,0.512,0.464,0.512,0.464v11.154
			c0,0-0.087,0.322-0.512,0.322V9.069V2.004c0-0.274-0.222-0.496-0.495-0.496L3.21,1.505V2.58h0.665v0.827H3.21v2.06h0.55v0.827
			H3.21v1.751h0.55v0.828H3.21v2.251h0.454v0.826H3.21v1.927h7.446c0.273,0,0.495-0.223,0.495-0.494l0.991-0.002
			C12.674,13.38,12.637,12.855,12.637,12.855z M8.729,9.249c-0.415,0-0.718-0.212-0.76-0.681h-0.02
			c-0.273,0.451-0.672,0.681-1.14,0.681c-0.575,0-0.991-0.424-0.991-1.15c0-1.078,0.797-2.06,2.069-2.06
			c0.391,0,0.833,0.098,1.053,0.221L8.674,7.896c-0.087,0.521-0.025,0.76,0.222,0.769c0.379,0.009,0.858-0.478,0.858-1.494
			c0-1.149-0.743-2.042-2.114-2.042c-1.354,0-2.538,1.061-2.538,2.75c0,1.477,0.947,2.316,2.265,2.316
			c0.449,0,0.928-0.097,1.282-0.282l0.158,0.513c-0.529,0.238-0.991,0.317-1.619,0.317c-1.467,0-2.758-1.052-2.758-2.785
			c0-1.805,1.309-3.37,3.309-3.37c1.556,0,2.668,1.071,2.668,2.556C10.408,8.436,9.684,9.249,8.729,9.249z"/>
		<path style="fill:#030104;" d="M6.704,7.993c0,0.336,0.15,0.549,0.443,0.549c0.325,0,0.67-0.417,0.751-0.929l0.125-0.841
			C7.95,6.755,7.863,6.737,7.748,6.737C7.164,6.737,6.704,7.312,6.704,7.993z"/>
		<rect x="2.215" y="2.58" style="fill:#030104;" width="0.995" height="0.827"/>
		<rect x="2.215" y="5.466" style="fill:#030104;" width="0.995" height="0.827"/>
		<rect x="2.215" y="8.044" style="fill:#030104;" width="0.995" height="0.828"/>
		<rect x="2.215" y="11.124" style="fill:#030104;" width="0.995" height="0.826"/>
	</g>
</g>
<g>
</g>
<g>
</g>
<g>
</g>
<g>
</g>
<g>
</g>
<g>
</g>
<g>
</g>
<g>
</g>
<g>
</g>
<g>
</g>
<g>
</g>
<g>
</g>
<g>
</g>
<g>
</g>
<g>
</g>
</svg>
