<?xml version="1.0" standalone="no"?>
<!DOCTYPE svg PUBLIC "-//W3C//DTD SVG 20010904//EN"
 "http://www.w3.org/TR/2001/REC-SVG-20010904/DTD/svg10.dtd">
<svg version="1.0" xmlns="http://www.w3.org/2000/svg"
 width="860.000000pt" height="900.000000pt" viewBox="0 0 860.000000 900.000000"
 preserveAspectRatio="xMidYMid meet">
<metadata>
Created by potrace 1.16, written by Peter Selinger 2001-2019
</metadata>
<g transform="translate(0.000000,900.000000) scale(0.100000,-0.100000)"
fill="#000000" stroke="none">
<path d="M4095 8585 c-168 -32 -216 -61 -734 -449 l-459 -344 -478 -87 c-623
-112 -665 -121 -751 -156 -143 -60 -282 -181 -363 -317 -77 -130 -86 -170
-173 -787 l-81 -570 -324 -470 c-182 -263 -340 -503 -360 -544 -40 -87 -72
-228 -72 -323 0 -128 46 -295 110 -400 16 -26 180 -247 363 -490 l334 -443
103 -565 c77 -426 109 -584 132 -643 77 -202 245 -368 448 -446 86 -33 158
-45 815 -136 220 -31 410 -60 422 -65 11 -5 227 -152 480 -326 265 -184 489
-332 532 -352 87 -40 228 -72 322 -72 133 0 293 44 399 109 28 17 249 180 492
363 l443 333 557 101 c307 56 581 110 610 119 245 80 448 294 512 541 8 32 49
302 91 599 41 297 79 549 84 560 5 11 151 226 325 477 316 457 367 541 402
668 25 90 25 291 1 380 -38 141 -81 208 -440 687 -339 453 -346 463 -357 525
-112 629 -195 1062 -215 1120 -76 216 -253 393 -475 473 -59 21 -195 44 -650
109 l-575 82 -465 324 c-268 186 -496 338 -539 358 -139 64 -313 86 -466 57z
m551 -1160 c1112 -130 2067 -940 2385 -2023 79 -270 112 -510 112 -802 0 -102
-5 -237 -12 -300 -70 -648 -358 -1247 -821 -1710 -463 -463 -1062 -750 -1710
-821 -148 -16 -452 -16 -600 0 -648 70 -1248 358 -1710 821 -463 463 -750
1062 -821 1710 -16 148 -16 452 0 600 51 466 218 919 479 1300 324 473 782
839 1315 1050 281 111 540 167 902 194 84 6 353 -5 481 -19z"/>
<path d="M4080 7169 c-496 -41 -997 -243 -1400 -565 -109 -87 -297 -275 -384
-384 -764 -956 -764 -2286 0 -3240 88 -109 275 -296 384 -384 286 -229 654
-413 992 -495 442 -108 865 -104 1298 10 326 86 674 264 950 485 109 88 296
275 384 384 640 799 753 1874 294 2783 -253 500 -659 901 -1163 1148 -191 93
-312 139 -489 184 -295 75 -567 98 -866 74z m-692 -786 l3 -83 74 0 75 0 0 85
0 85 85 0 85 0 0 -255 0 -255 -85 0 -85 0 0 85 0 85 -75 0 -74 0 -3 -82 -3
-83 -82 -3 -83 -3 0 256 0 256 83 -3 82 -3 3 -82z m862 2 l0 -85 -75 0 -75 0
0 -170 0 -171 -82 3 -83 3 -3 167 -2 167 -73 3 -72 3 -3 69 c-2 38 -1 75 2 83
4 10 52 13 236 13 l230 0 0 -85z m303 -6 l54 -90 54 88 54 88 88 3 87 3 0
-256 0 -256 -82 3 -83 3 -5 118 -5 118 -50 -80 c-27 -45 -53 -81 -56 -81 -4 0
-31 37 -60 82 l-54 82 -3 -122 -3 -123 -82 3 -82 3 -3 240 c-1 132 0 245 2
252 4 9 31 13 90 13 l85 0 54 -91z m589 -76 l3 -168 118 -3 117 -3 0 -84 0
-85 -200 0 -200 0 0 255 0 255 80 0 80 0 2 -167z m474 -655 c-4 -51 -18 -210
-31 -353 -13 -143 -63 -708 -111 -1255 -48 -547 -90 -998 -94 -1002 -3 -4
-248 -75 -543 -156 l-538 -149 -537 149 c-295 82 -540 152 -543 156 -6 7 -240
2622 -239 2675 l0 27 1321 0 1322 0 -7 -92z"/>
<path d="M3470 5176 c0 -23 79 -907 86 -953 l5 -43 575 0 575 0 -5 -42 c-4
-24 -13 -119 -22 -213 -8 -93 -16 -170 -17 -172 -1 -1 -85 -24 -185 -51 l-182
-50 -184 51 -185 50 -6 66 c-3 36 -9 98 -13 136 l-7 70 -168 3 -168 2 6 -47
c3 -27 15 -147 25 -267 11 -120 21 -220 22 -221 2 -1 155 -44 340 -95 l338
-93 152 42 c243 66 523 144 526 146 6 4 92 1001 87 1013 -3 9 -134 12 -605 12
-565 0 -600 1 -600 18 0 9 -7 82 -15 161 -7 80 -11 149 -9 153 3 4 288 8 634
8 l629 0 5 33 c5 30 26 262 26 286 0 8 -243 11 -830 11 -708 0 -830 -2 -830
-14z"/>
</g>
</svg>
