<?xml version="1.0" standalone="no"?>
<!DOCTYPE svg PUBLIC "-//W3C//DTD SVG 20010904//EN"
 "http://www.w3.org/TR/2001/REC-SVG-20010904/DTD/svg10.dtd">
<svg version="1.0" xmlns="http://www.w3.org/2000/svg"
 width="225.000000pt" height="225.000000pt" viewBox="0 0 225.000000 225.000000"
 preserveAspectRatio="xMidYMid meet">
<metadata>
Created by potrace 1.16, written by Peter Selinger 2001-2019
</metadata>
<g transform="translate(0.000000,225.000000) scale(0.100000,-0.100000)"
fill="#000000" stroke="none">
<path d="M140 1125 l0 -985 985 0 985 0 0 985 0 985 -985 0 -985 0 0 -985z
m1635 66 c37 -16 125 -100 125 -118 0 -5 -10 -15 -22 -22 -13 -8 -44 -28 -70
-44 l-47 -29 -34 36 c-30 31 -40 36 -81 36 -36 0 -52 -5 -71 -25 -59 -58 -22
-108 133 -181 194 -91 247 -153 246 -289 0 -79 -19 -128 -68 -177 -86 -86
-276 -109 -412 -49 -48 22 -119 83 -145 126 l-18 29 73 43 73 42 51 -49 c40
-39 60 -50 96 -55 96 -15 166 22 166 86 0 46 -49 86 -168 137 -55 24 -119 60
-143 80 -103 88 -120 256 -37 357 32 38 86 70 145 85 52 13 159 3 208 -19z
m-565 -335 c0 -383 -2 -403 -56 -473 -73 -95 -271 -117 -388 -43 -40 26 -106
100 -106 120 0 9 134 90 149 90 5 0 12 -8 15 -18 17 -54 104 -87 156 -60 45
24 49 59 49 411 l1 327 90 0 90 0 0 -354z"/>
</g>
</svg>
